<?xml version="1.0" encoding="UTF-8" standalone="no"?>
<!-- Created with Inkscape (http://www.inkscape.org/) -->

<svg
   width="48"
   height="48"
   viewBox="0 0 48 48"
   version="1.1"
   id="svg1"
   xml:space="preserve"
   sodipodi:docname="Day 11 - AntennaPod.svg"
   inkscape:version="1.4.1 (93de688d07, 2025-03-30)"
   xmlns:inkscape="http://www.inkscape.org/namespaces/inkscape"
   xmlns:sodipodi="http://sodipodi.sourceforge.net/DTD/sodipodi-0.dtd"
   xmlns:xlink="http://www.w3.org/1999/xlink"
   xmlns="http://www.w3.org/2000/svg"
   xmlns:svg="http://www.w3.org/2000/svg"><sodipodi:namedview
     id="namedview1"
     pagecolor="#575757"
     bordercolor="#eeeeee"
     borderopacity="1"
     inkscape:showpageshadow="0"
     inkscape:pageopacity="0"
     inkscape:pagecheckerboard="0"
     inkscape:deskcolor="#505050"
     inkscape:document-units="px"
     inkscape:zoom="4"
     inkscape:cx="-10.375"
     inkscape:cy="15.625"
     inkscape:window-width="1366"
     inkscape:window-height="705"
     inkscape:window-x="0"
     inkscape:window-y="0"
     inkscape:window-maximized="1"
     inkscape:current-layer="layer1" /><defs
     id="defs1"><inkscape:path-effect
       effect="ruler"
       id="path-effect47"
       is_visible="true"
       lpeversion="1.3.1"
       unit="px"
       mark_distance="20"
       mark_angle="0"
       mark_length="14"
       minor_mark_length="7"
       minor_mark_gap="0"
       major_mark_gap="0"
       major_mark_steps="5"
       shift="0"
       offset="0"
       mark_dir="left"
       border_marks="both" /><linearGradient
       id="linearGradient39"
       inkscape:collect="always"><stop
         style="stop-color:#2b62dd;stop-opacity:1;"
         offset="0"
         id="stop39" /><stop
         style="stop-color:#089fdc;stop-opacity:1;"
         offset="1"
         id="stop40" /></linearGradient><inkscape:path-effect
       effect="mirror_symmetry"
       start_point="23.999997,24.092304"
       end_point="23.999997,34.433248"
       center_point="23.999997,29.262776"
       id="path-effect68"
       is_visible="true"
       lpeversion="1.2"
       lpesatellites="#path68"
       mode="free"
       discard_orig_path="false"
       fuse_paths="false"
       oposite_fuse="false"
       split_items="true"
       split_open="false"
       link_styles="false" /><inkscape:path-effect
       effect="bspline"
       id="path-effect67"
       is_visible="true"
       lpeversion="1.3"
       weight="33.333333"
       steps="2"
       helper_size="0"
       apply_no_weight="true"
       apply_with_weight="true"
       only_selected="false"
       uniform="false" /><filter
       id="mask-powermask-path-effect7_inverse"
       inkscape:label="filtermask-powermask-path-effect7"
       style="color-interpolation-filters:sRGB"
       height="100"
       width="100"
       x="-50"
       y="-50"><feColorMatrix
         id="mask-powermask-path-effect7_primitive1"
         values="1"
         type="saturate"
         result="fbSourceGraphic" /><feColorMatrix
         id="mask-powermask-path-effect7_primitive2"
         values="-1 0 0 0 1 0 -1 0 0 1 0 0 -1 0 1 0 0 0 1 0 "
         in="fbSourceGraphic" /></filter><linearGradient
       inkscape:collect="always"
       xlink:href="#linearGradient39"
       id="linearGradient40"
       x1="24"
       y1="42.826653"
       x2="24"
       y2="2.7016525"
       gradientUnits="userSpaceOnUse"
       gradientTransform="matrix(0.97507788,0,0,0.97507788,0.59813084,1.8031778)" /></defs><g
     inkscape:label="Layer 1"
     inkscape:groupmode="layer"
     id="layer1"><path
       id="rect81"
       style="fill:url(#linearGradient40);stroke:none;stroke-width:1;stroke-linecap:square;stroke-linejoin:bevel"
       d="M 24,4.4375001 C 34.837625,4.4375001 43.5625,13.162375 43.5625,24 43.5625,34.837625 34.837625,43.5625 24,43.5625 13.162375,43.5625 4.4375,34.837625 4.4375,24 4.4375,13.162375 13.162375,4.4375001 24,4.4375001 Z" /><g
       id="g1"
       transform="translate(0,1.2358469)"><path
         d="M 24.000001,7.5615563 C 15.725629,7.5615551 8.9975789,14.289607 8.9975789,22.563976 c 0,5.207492 2.6634091,9.801426 6.7014701,12.49229 l 0.692719,-1.930272 c -3.273275,-2.360253 -5.401649,-6.208518 -5.401649,-10.562018 0,-7.197518 5.812358,-13.0098808 13.009882,-13.0098797 7.197522,-1.1e-6 13.009881,5.8123597 13.009881,13.0098797 0,4.353504 -2.128369,8.201765 -5.401651,10.562018 l 0.69272,1.930272 c 4.038068,-2.690864 6.701471,-7.284794 6.701471,-12.49229 0,-8.274369 -6.72805,-15.0024209 -15.002421,-15.0024197 z"
         style="baseline-shift:baseline;display:inline;overflow:visible;opacity:1;vector-effect:none;fill:#ffffff;fill-opacity:0.703037;stroke-width:1;stroke-linecap:square;stroke-linejoin:bevel;enable-background:accumulate;stop-color:#000000;stop-opacity:1"
         id="path69" /><path
         d="m 17.640998,29.619591 0.739416,-2.078157 c -1.116628,-1.296675 -1.79017,-2.985215 -1.79017,-4.837357 0,-4.103145 3.30661,-7.409755 7.409757,-7.409755 4.103145,0 7.409755,3.30661 7.409755,7.409755 0,1.852147 -0.673538,3.54068 -1.790173,4.837357 l 0.73942,2.078157 c 1.868662,-1.720164 3.043293,-4.18468 3.043293,-6.915514 0,-5.17999 -4.222305,-9.402295 -9.402295,-9.402295 -5.179991,0 -9.402297,4.222305 -9.402297,9.402295 0,2.730831 1.174639,5.19535 3.043294,6.915514 z"
         style="baseline-shift:baseline;display:inline;overflow:visible;opacity:1;vector-effect:none;fill:#ffffff;fill-opacity:0.703037;stroke-width:1;stroke-linecap:square;stroke-linejoin:bevel;enable-background:accumulate;stop-color:#000000;stop-opacity:1"
         id="path70" /><path
         d="m 18.65423,33.92162 -2.428407,6.810435 c 0.895355,0.40046 1.677924,0.627721 2.368999,0.844205 l 2.082048,-5.923134 -0.292239,1.473513 C 19.498993,36.906788 19.470247,34.291289 18.65423,33.92162 Z m 1.730401,3.205019 c 1.158433,0.287571 2.369068,0.439761 3.61537,0.439759 1.2463,2e-6 2.456936,-0.152191 3.615368,-0.439759 z"
         style="font-size:13.5758px;line-height:1.2;font-family:FreeSans;-inkscape-font-specification:'FreeSans, Normal';font-variant-ligatures:discretionary-ligatures;fill:#ffffff;stroke-width:0.999999;stroke-linecap:square;stroke-linejoin:bevel"
         id="path81"
         sodipodi:nodetypes="cccccccscc" /><path
         d="m 24.000001,18.956393 c -1.992585,-4.1e-4 -3.607995,1.614999 -3.607586,3.607583 6.49e-4,1.079433 0.484719,2.101835 1.319278,2.786443 l -1.358195,3.809953 -0.677153,1.891356 -1.179179,3.307927 -0.669368,1.879683 c 0.816017,0.369669 1.671195,0.66745 2.556833,0.887301 h 7.230738 0.144001 l 1.53395,4.481133 c 0.828428,-0.25847 1.657583,-0.500433 2.480864,-0.87572 l -1.601973,-4.492714 -0.669368,-1.879683 -1.17918,-3.307927 -0.677151,-1.891356 -1.358197,-3.806061 c 0.02626,-0.02169 0.0522,-0.04373 0.07783,-0.06616 0.788918,-0.685335 1.241814,-1.679151 1.241447,-2.724175 4.1e-4,-1.992587 -1.615002,-3.608001 -3.60759,-3.607591 z m 0.02725,7.078962 0.04671,0.13621 1.288147,3.817738 0.638235,1.90303 1.054644,3.125017 h -6.273386 l 1.13637,-3.144476 0.681044,-1.891354 h 0.004 l 1.373762,-3.809955 z"
         style="fill:#ffffff;stroke-width:1;stroke-linecap:square;stroke-linejoin:bevel"
         id="path75"
         sodipodi:nodetypes="cccccccccccccccccccccccccccccccc" /></g><path
       style="fill:#ffffff;stroke:none;stroke-width:0.0377953;stroke-linecap:square;stroke-linejoin:bevel"
       d="m 17.831704,37.475185 c 0.841776,0.403438 1.720971,0.720987 2.514287,0.875582"
       id="path29"
       sodipodi:nodetypes="cc" /><path
       style="fill:none;stroke:#ffffff;stroke-width:0.0377953;stroke-linecap:square;stroke-linejoin:bevel;stroke-opacity:1"
       d="m 20.384631,38.362486 h 7.121363"
       id="path30"
       sodipodi:nodetypes="cc" /></g></svg>
