<?xml version="1.0" encoding="UTF-8" standalone="no"?>
<!-- Created with Inkscape (http://www.inkscape.org/) -->

<svg
   width="48"
   height="48"
   viewBox="0 0 48 48"
   version="1.1"
   id="svg1"
   xml:space="preserve"
   inkscape:version="1.4.1 (93de688d07, 2025-03-30)"
   sodipodi:docname="Day 10 - Archlinux.svg"
   xmlns:inkscape="http://www.inkscape.org/namespaces/inkscape"
   xmlns:sodipodi="http://sodipodi.sourceforge.net/DTD/sodipodi-0.dtd"
   xmlns="http://www.w3.org/2000/svg"
   xmlns:svg="http://www.w3.org/2000/svg"><sodipodi:namedview
     id="namedview1"
     pagecolor="#777777"
     bordercolor="#eeeeee"
     borderopacity="1"
     inkscape:showpageshadow="0"
     inkscape:pageopacity="0"
     inkscape:pagecheckerboard="0"
     inkscape:deskcolor="#505050"
     inkscape:document-units="px"
     inkscape:zoom="5.6568543"
     inkscape:cx="2.298097"
     inkscape:cy="28.019106"
     inkscape:window-width="1366"
     inkscape:window-height="705"
     inkscape:window-x="0"
     inkscape:window-y="0"
     inkscape:window-maximized="1"
     inkscape:current-layer="layer1" /><defs
     id="defs1" /><g
     inkscape:label="Layer 1"
     inkscape:groupmode="layer"
     id="layer1"><path
       id="path1"
       style="display:inline;fill:#1692d0;fill-opacity:1;stroke:none;stroke-width:0.377953;stroke-linecap:square;stroke-linejoin:bevel;stroke-dasharray:none"
       inkscape:transform-center-y="-3.6569095"
       d="m 40.355054,36.775546 c -4.110646,-2.529039 -9.269973,-5.038261 -12.799987,-5.493348 0.831776,-2.700771 -0.40391,-8.061007 -3.555645,-8.170258 -3.134753,0.09137 -4.374884,5.483627 -3.391054,8.122862 -3.493358,0.478962 -8.982295,3.126136 -12.974372,5.540744 4.830544,-8.402766 12.133331,-22.480687 11.916908,-22.329192 2.887271,2.091065 3.311283,1.942814 4.637533,2.63111 -1.429294,-1.042265 -2.833196,-2.181866 -4.151462,-3.649741 0,0 2.963224,-6.5722192 3.962447,-9.3955007 3.79707,9.2949777 7.997276,17.5585227 12.441682,25.4939377 -0.04232,-0.09674 -2.967374,-1.45667 -4.446242,-1.725956 1.461012,0.83547 2.926745,1.618145 5.570086,3.841566 0,0 2.00811,3.698689 2.790106,5.133776 z"
       sodipodi:nodetypes="ccccccccccccc"
       inkscape:transform-center-x="-2.9545045e-06" /><path
       d="M 11.205492,42.544533 H 9.2562178 q -0.4222254,0 -0.7670428,-0.154816 Q 8.1513947,42.227864 7.940282,41.967491 7.7291693,41.700082 7.6165759,41.369339 7.5039825,41.031558 7.5039825,40.686741 q 0,-0.351854 0.1125934,-0.682598 0.1125934,-0.33778 0.3237061,-0.598152 0.2111127,-0.260373 0.548893,-0.415189 0.3448174,-0.161853 0.7670428,-0.161853 h 0.6192639 v 0.710746 H 9.2984404 q -0.2955578,0 -0.5277818,0.126668 -0.2322239,0.126668 -0.3518545,0.330743 -0.1196305,0.204076 -0.1759272,0.450374 -0.056297,0.239261 0,0.485559 0.056297,0.239261 0.1759272,0.443337 0.1196306,0.197038 0.3518545,0.323706 0.232224,0.126668 0.5277818,0.126668 h 1.1892686 v -2.997801 h 0.717783 v 1.738162 z m 0.942969,0 v -1.963348 q 0,-0.478522 0.190002,-0.865562 0.190001,-0.394077 0.591115,-0.640376 0.408151,-0.246298 0.971119,-0.246298 h 0.935932 v 0.710746 h -0.935932 v 0.007 q -0.492597,0.01407 -0.767043,0.302594 -0.26741,0.288521 -0.26741,0.731858 v 1.963348 z m 3.574845,-3.173728 q 0.548893,-0.541856 1.315936,-0.541856 0.77408,0 1.315936,0.541856 l -0.506671,0.506671 q -0.33778,-0.337781 -0.809265,-0.337781 -0.471485,0 -0.809265,0.337781 -0.330743,0.33778 -0.330743,0.809265 0,0.471485 0.330743,0.809265 0.33778,0.330744 0.809265,0.330744 0.471485,0 0.809265,-0.330744 l 0.506671,0.506671 q -0.541856,0.541856 -1.315936,0.541856 -0.767043,0 -1.315936,-0.541856 -0.541856,-0.548893 -0.541856,-1.315936 0,-0.77408 0.541856,-1.315936 z m 4.109658,3.173728 H 19.115181 V 37.61857 h 0.717783 v 1.527048 q 0.4363,-0.316669 1.041489,-0.316669 h 0.190002 q 0.422225,0 0.760006,0.161853 0.344817,0.154816 0.55593,0.422226 0.211112,0.260372 0.323706,0.591115 0.112593,0.323706 0.112593,0.682598 v 1.857792 h -0.717783 v -1.857792 q 0,-0.464448 -0.281484,-0.802228 -0.281483,-0.344818 -0.795191,-0.344818 h -0.154816 v 0.007 q -0.485559,0.01407 -0.760005,0.351854 -0.274447,0.330743 -0.274447,0.788154 z"
       id="text1"
       style="font-size:7.03709px;line-height:1.2;font-family:ESPACION;-inkscape-font-specification:'ESPACION, Normal';font-variant-ligatures:discretionary-ligatures;fill:#939393;stroke-width:0.377952;stroke-linecap:square;stroke-linejoin:bevel"
       aria-label="arch" /><path
       d="m 24.401591,37.358455 h 0.632239 v 5.346539 h -0.632239 z m 1.955129,1.498131 h 0.632239 v 3.848408 H 26.35672 Z m 0,-1.498131 h 0.632239 v 0.800607 H 26.35672 Z m 5.154119,3.02375 v 2.322789 H 30.8786 v -2.302173 q 0,-0.546336 -0.213037,-0.817787 -0.213037,-0.27145 -0.63911,-0.27145 -0.511976,0 -0.807479,0.326428 -0.295503,0.326427 -0.295503,0.889944 v 2.175038 h -0.635674 v -3.848408 h 0.635674 v 0.597877 q 0.226781,-0.347044 0.532592,-0.518847 0.309248,-0.171804 0.711269,-0.171804 0.663163,0 1.003335,0.412329 0.340172,0.408893 0.340172,1.206064 z m 1.195756,0.804042 v -2.329661 h 0.632238 v 2.305609 q 0,0.546336 0.213037,0.821223 0.213037,0.27145 0.639111,0.27145 0.511976,0 0.807478,-0.326428 0.298939,-0.326427 0.298939,-0.889944 v -2.18191 h 0.632239 v 3.848408 h -0.632239 v -0.591005 q -0.230217,0.35048 -0.536028,0.522284 -0.302375,0.168367 -0.704396,0.168367 -0.663163,0 -1.006771,-0.412329 -0.343608,-0.412329 -0.343608,-1.206064 z m 1.590904,-2.422435 z m 6.1334,0.09277 -1.391612,1.872663 1.46377,1.975745 h -0.745629 l -1.120162,-1.511875 -1.120162,1.511875 h -0.745629 l 1.494695,-2.013542 -1.36756,-1.834866 h 0.745629 l 1.020516,1.370995 1.020515,-1.370995 z"
       id="text3"
       style="font-size:7.03709px;line-height:1.2;font-family:'DejaVu Sans';-inkscape-font-specification:'DejaVu Sans, Normal';font-variant-ligatures:discretionary-ligatures;fill:#1692d0;stroke-width:0.377952;stroke-linecap:square;stroke-linejoin:bevel"
       aria-label="linux" /></g></svg>
