<?xml version="1.0" encoding="UTF-8" standalone="no"?>
<!-- Created with Inkscape (http://www.inkscape.org/) -->

<svg
   width="48"
   height="48"
   viewBox="0 0 48 48"
   version="1.1"
   id="svg1"
   xml:space="preserve"
   sodipodi:docname="Day 3 - MonkeyType.svg"
   inkscape:version="1.4.1 (93de688d07, 2025-03-30)"
   xmlns:inkscape="http://www.inkscape.org/namespaces/inkscape"
   xmlns:sodipodi="http://sodipodi.sourceforge.net/DTD/sodipodi-0.dtd"
   xmlns="http://www.w3.org/2000/svg"
   xmlns:svg="http://www.w3.org/2000/svg"><sodipodi:namedview
     id="namedview1"
     pagecolor="#505050"
     bordercolor="#eeeeee"
     borderopacity="1"
     inkscape:showpageshadow="0"
     inkscape:pageopacity="0"
     inkscape:pagecheckerboard="0"
     inkscape:deskcolor="#505050"
     inkscape:document-units="px"
     inkscape:zoom="8"
     inkscape:cx="18.0625"
     inkscape:cy="25.625"
     inkscape:window-width="1366"
     inkscape:window-height="699"
     inkscape:window-x="0"
     inkscape:window-y="0"
     inkscape:window-maximized="1"
     inkscape:current-layer="layer1" /><defs
     id="defs1" /><g
     inkscape:label="Layer 1"
     inkscape:groupmode="layer"
     id="layer1"><rect
       style="fill:none;stroke:#fcd116;stroke-width:2.98582;stroke-linecap:round;stroke-linejoin:round;stroke-dasharray:none;stroke-opacity:1;paint-order:normal"
       id="rect1"
       width="41.708572"
       height="23.853109"
       x="3.1457138"
       y="12.073445"
       ry="5.8961315" /><path
       d="M 27.037109,22.507812 A 1.492915,1.492915 0 0 0 25.542969,24 a 1.492915,1.492915 0 0 0 1.49414,1.492187 h 4.425782 v 4.466797 a 1.492915,1.492915 0 0 0 1.49414,1.492188 1.492915,1.492915 0 0 0 1.492188,-1.492188 v -4.466797 h 4.427734 A 1.492915,1.492915 0 0 0 40.369141,24 1.492915,1.492915 0 0 0 38.876953,22.507812 h -5.919922 a 1.492915,1.492915 0 0 0 -0.002,0 z"
       style="baseline-shift:baseline;display:inline;overflow:visible;vector-effect:none;fill:#fcd116;stroke-linecap:round;stroke-linejoin:round;enable-background:accumulate;stop-color:#000000;stop-opacity:1"
       id="path10" /><path
       style="fill:#fcd216;fill-opacity:0.356863;stroke:#fcd116;stroke-width:2.98583;stroke-linecap:round;stroke-linejoin:round;stroke-dasharray:none;stroke-opacity:1;paint-order:normal"
       d="m 32.956395,18.025678 h 5.894379"
       id="path3"
       sodipodi:nodetypes="cc" /><path
       style="fill:#fcd216;fill-opacity:0.356863;stroke:#fcd116;stroke-width:2.98583;stroke-linecap:round;stroke-linejoin:round;stroke-dasharray:none;stroke-opacity:1;paint-order:normal"
       d="m 26.237172,18.025678 h 0.751684"
       id="path2-0"
       sodipodi:nodetypes="cc" /><path
       style="fill:#fcd216;fill-opacity:0.356863;stroke:#fcd116;stroke-width:2.98583;stroke-linecap:round;stroke-linejoin:round;stroke-dasharray:none;stroke-opacity:1;paint-order:normal"
       d="m 38.890705,29.959214 v 0"
       id="path2-0-7"
       sodipodi:nodetypes="cc" /><path
       style="fill:#fcd216;fill-opacity:0.356863;stroke:#fcd116;stroke-width:2.98583;stroke-linecap:round;stroke-linejoin:round;stroke-dasharray:none;stroke-opacity:1;paint-order:normal"
       d="m 18.09646,29.959214 8.856455,0"
       id="path2-3"
       sodipodi:nodetypes="cc" /><path
       style="fill:#fcd216;fill-opacity:0.356863;stroke:#fcd116;stroke-width:2.98583;stroke-linecap:round;stroke-linejoin:round;stroke-dasharray:none;stroke-opacity:1;paint-order:normal"
       d="M 9.1039176,29.959214 H 12.051107"
       id="path2-2-2"
       sodipodi:nodetypes="cc" /><path
       d="m 7.6042836,20.846074 c 0,0.625987 0.018009,3.136719 0.018009,3.136719 4.017e-4,0.823943 0.6682378,1.491782 1.4921812,1.492187 0.8247084,6.77e-4 1.4937382,-0.667478 1.4941412,-1.492187 v -3.136719 c 0,0 0.06502,-1.348939 1.492188,-1.33789 1.427169,0.01105 1.492187,1.33789 1.492187,1.33789 v 3.136719 c 4.01e-4,0.824709 0.669432,1.492864 1.49414,1.492187 0.823946,-4.02e-4 1.491785,-0.668241 1.492187,-1.492187 v -3.136719 c 0,0 0.029,-1.33789 1.496094,-1.33789 1.467092,0 1.496094,1.33789 1.496094,1.33789 v 3.136719 c 4.02e-4,0.824708 0.669432,1.492864 1.49414,1.492187 0.823946,-4.01e-4 1.491786,-0.668241 1.492188,-1.492187 0,0 -0.0062,-2.807288 -0.0062,-3.136719 0,-0.329431 -0.09729,-1.607718 -0.659857,-2.583607 -0.58678,-1.017886 -2.330661,-1.725058 -3.816365,-1.725058 -1.485704,0 -2.116754,0.328476 -2.988281,1.132246 -0.809261,-0.764904 -1.359836,-1.132246 -2.986327,-1.132246 -1.626491,0 -2.6620334,0.656617 -3.5336057,1.725058 -0.8715724,1.06844 -0.9629137,1.95762 -0.9629137,2.583607 z"
       style="baseline-shift:baseline;display:inline;overflow:visible;opacity:1;vector-effect:none;fill:#fcd116;stroke-linecap:round;stroke-linejoin:round;enable-background:accumulate;stop-color:#000000;stop-opacity:1"
       id="path22"
       sodipodi:nodetypes="zcccczccccczcccczszczzz" /></g></svg>
