<?xml version="1.0" encoding="UTF-8" standalone="no"?>
<!-- Created with Inkscape (http://www.inkscape.org/) -->

<svg
   width="48"
   height="48"
   viewBox="0 0 48 48"
   version="1.1"
   id="svg1"
   inkscape:version="1.4.1 (93de688d07, 2025-03-30)"
   sodipodi:docname="Day 9 - DAJLA.svg"
   xml:space="preserve"
   xmlns:inkscape="http://www.inkscape.org/namespaces/inkscape"
   xmlns:sodipodi="http://sodipodi.sourceforge.net/DTD/sodipodi-0.dtd"
   xmlns="http://www.w3.org/2000/svg"
   xmlns:svg="http://www.w3.org/2000/svg"><sodipodi:namedview
     id="namedview1"
     pagecolor="#757575"
     bordercolor="#eeeeee"
     borderopacity="1"
     inkscape:showpageshadow="0"
     inkscape:pageopacity="0"
     inkscape:pagecheckerboard="0"
     inkscape:deskcolor="#5d5d5d"
     inkscape:document-units="px"
     inkscape:zoom="7.2407734"
     inkscape:cx="5.1790047"
     inkscape:cy="25.756917"
     inkscape:window-width="1366"
     inkscape:window-height="705"
     inkscape:window-x="0"
     inkscape:window-y="0"
     inkscape:window-maximized="1"
     inkscape:current-layer="layer1" /><defs
     id="defs1"><inkscape:path-effect
       effect="fillet_chamfer"
       id="path-effect145"
       is_visible="true"
       lpeversion="1"
       nodesatellites_param="F,0,0,1,0,6.0626826,0,1 @ F,0,0,1,0,7.8580709,0,1 @ F,0,0,1,0,6.0626826,0,1 @ F,0,0,1,0,6.0626826,0,1"
       radius="6.0626826"
       unit="px"
       method="auto"
       mode="F"
       chamfer_steps="1"
       flexible="false"
       use_knot_distance="true"
       apply_no_radius="true"
       apply_with_radius="true"
       only_selected="false"
       hide_knots="false" /><filter
       id="selectable_hidder_filter"
       width="1"
       height="1"
       x="0"
       y="0"
       style="color-interpolation-filters:sRGB;"
       inkscape:label="LPE boolean visibility"><feComposite
         id="boolops_hidder_primitive"
         result="composite1"
         operator="arithmetic"
         in2="SourceGraphic"
         in="BackgroundImage" /></filter><inkscape:path-effect
       effect="bool_op"
       operand-path=""
       id="path-effect95"
       is_visible="true"
       lpeversion="1"
       operation="inters"
       swap-operands="false"
       filltype-this="from-curve"
       filter=""
       filltype-operand="from-curve" /><inkscape:path-effect
       effect="bspline"
       id="path-effect22"
       is_visible="true"
       lpeversion="1.3"
       weight="33.333333"
       steps="2"
       helper_size="0"
       apply_no_weight="true"
       apply_with_weight="true"
       only_selected="false"
       uniform="false" /><inkscape:path-effect
       effect="bspline"
       id="path-effect9"
       is_visible="true"
       lpeversion="1.3"
       weight="33.333333"
       steps="2"
       helper_size="0"
       apply_no_weight="true"
       apply_with_weight="true"
       only_selected="false"
       uniform="false" /><inkscape:path-effect
       effect="bspline"
       id="path-effect7"
       is_visible="true"
       lpeversion="1.3"
       weight="33.333333"
       steps="2"
       helper_size="0"
       apply_no_weight="true"
       apply_with_weight="true"
       only_selected="false"
       uniform="false" /><inkscape:path-effect
       effect="bspline"
       id="path-effect5"
       is_visible="true"
       lpeversion="1.3"
       weight="33.333333"
       steps="2"
       helper_size="0"
       apply_no_weight="true"
       apply_with_weight="true"
       only_selected="false"
       uniform="false" /><inkscape:path-effect
       effect="bspline"
       id="path-effect3"
       is_visible="true"
       lpeversion="1.3"
       weight="33.333333"
       steps="2"
       helper_size="0"
       apply_no_weight="true"
       apply_with_weight="true"
       only_selected="false"
       uniform="false" /><inkscape:path-effect
       effect="bspline"
       id="path-effect21"
       is_visible="true"
       lpeversion="1.3"
       weight="33.333333"
       steps="2"
       helper_size="0"
       apply_no_weight="true"
       apply_with_weight="true"
       only_selected="false"
       uniform="false" /><inkscape:perspective
       sodipodi:type="inkscape:persp3d"
       inkscape:vp_x="0 : 0 : 1"
       inkscape:vp_y="19.196844 : 48.552427 : 1"
       inkscape:vp_z="48 : 0 : 1"
       inkscape:persp3d-origin="24 : 16 : 1"
       id="perspective1" /><clipPath
       clipPathUnits="userSpaceOnUse"
       id="clipPath143"><rect
         style="fill:none;stroke:none;stroke-width:0.00968504;stroke-linecap:square;stroke-linejoin:bevel;stroke-dasharray:none"
         id="rect143"
         width="30.64407"
         height="36.035156"
         x="8.5060902"
         y="3.6132812"
         rx="5.8717318"
         ry="0.31455708" /></clipPath><clipPath
       clipPathUnits="userSpaceOnUse"
       id="clipPath144"><rect
         style="fill:none;stroke:none;stroke-width:0.00968503;stroke-linecap:square;stroke-linejoin:bevel;stroke-dasharray:none"
         id="rect144"
         width="37.417427"
         height="44.719044"
         x="5.5583882"
         y="-8.3328867"
         rx="7.1695795"
         ry="0.39036021" /></clipPath></defs><g
     inkscape:label="Layer 1"
     inkscape:groupmode="layer"
     id="layer1"><path
       style="fill:#172274;fill-opacity:1;stroke:none;stroke-width:1.73;stroke-linecap:square;stroke-linejoin:bevel;stroke-dasharray:none"
       id="rect145"
       width="48"
       height="48"
       x="0"
       y="0"
       rx="0"
       ry="0"
       inkscape:path-effect="#path-effect145"
       sodipodi:type="rect"
       d="M 6.0626826,0 H 40.141929 A 7.8580709,7.8580709 45 0 1 48,7.8580709 V 41.937317 A 6.0626826,6.0626826 135 0 1 41.937317,48 H 6.0626826 A 6.0626826,6.0626826 45 0 1 0,41.937317 V 6.0626826 A 6.0626826,6.0626826 135 0 1 6.0626826,0 Z" /><g
       id="g9"
       transform="matrix(0.72670418,0,0,0.66804549,6.3649959,14.216137)"
       style="stroke:#ffffff;stroke-width:2.48292;stroke-dasharray:none"
       clip-path="url(#clipPath144)"><path
         style="fill:none;stroke:#ffffff;stroke-width:2.48292;stroke-linecap:square;stroke-linejoin:bevel;stroke-dasharray:none"
         d="m 5.4453126,32.825948 c 3.4071185,-1.318359 6.8141674,-2.636692 11.2955944,-1.977499 4.481428,0.659193 10.03676,3.295805 14.518186,3.954998 4.481427,0.659193 7.888475,-0.659139 11.295594,-1.977499"
         id="path2"
         sodipodi:nodetypes="cccc" /><path
         style="fill:none;stroke:#ffffff;stroke-width:2.48292;stroke-linecap:square;stroke-linejoin:bevel;stroke-dasharray:none"
         d="m 5.4453126,27.387775 c 3.4071185,-1.31836 6.8141674,-2.636692 11.2955944,-1.977499 4.481428,0.659193 10.03676,3.295805 14.518186,3.954998 4.481427,0.659193 7.888475,-0.659139 11.295594,-1.977499"
         id="path5"
         sodipodi:nodetypes="cccc" /><path
         style="fill:none;stroke:#ffffff;stroke-width:2.48292;stroke-linecap:square;stroke-linejoin:bevel;stroke-dasharray:none"
         d="m 5.4453127,21.949603 c 3.4071185,-1.31836 6.8141673,-2.636692 11.2955943,-1.977499 4.481428,0.659193 10.03676,3.295805 14.518186,3.954998 4.481427,0.659193 7.888475,-0.659139 11.295594,-1.977499"
         id="path20"
         sodipodi:nodetypes="cccc" /></g><g
       id="g142"
       clip-path="url(#clipPath143)"
       transform="matrix(0.8873299,0,0,0.82903361,2.8565913,4.5931003)"
       style="fill:#ffffff;stroke-width:1.16592"><path
         d="m 39.435547,11.570313 c -5.387966,0 -10.139976,2.751524 -12.9375,6.919921 -0.06067,0.09044 -0.116982,0.183617 -0.175781,0.275391 -1.323081,2.063583 -2.179599,4.454884 -2.404297,7.025391 0.659921,0.215927 1.318663,0.427181 1.96875,0.625 0.04867,-0.847323 0.180038,-1.67077 0.373047,-2.470704 -0.0022,-0.01366 -0.0036,-0.02739 -0.0059,-0.04102 0.01668,-0.06828 0.04674,-0.131348 0.06445,-0.199219 1.520769,-5.83223 6.801956,-10.128906 13.117188,-10.128906 H 40.4375 v -2.005859 z"
         style="baseline-shift:baseline;display:inline;overflow:visible;opacity:1;vector-effect:none;fill:#ffffff;stroke-width:1.16933;stroke-linecap:square;stroke-linejoin:bevel;enable-background:accumulate;stop-color:#000000;stop-opacity:1"
         id="path141" /><path
         d="m 39.435547,17.251953 c -5.4513,0 -9.892578,4.441277 -9.892578,9.892578 v 0.173828 c 0.07742,0.01257 0.153747,0.02387 0.230468,0.03516 0.613193,0.0902 1.204156,0.13742 1.775391,0.15039 v -0.359375 c 0,-4.36705 3.519669,-7.884765 7.886719,-7.884765 H 40.4375 v -2.007813 z"
         style="baseline-shift:baseline;display:inline;overflow:visible;opacity:1;vector-effect:none;fill:#ffffff;stroke-width:1.16933;stroke-linecap:square;stroke-linejoin:bevel;enable-background:accumulate;stop-color:#000000;stop-opacity:1"
         id="path140" /><path
         d="M 39.435547,22.072266 H 40.4375 v 2.005859 h -1.001953 c -1.591249,0 -2.884684,1.184614 -3.050781,2.728516 -0.65655,0.193953 -1.327658,0.358728 -2.023438,0.480468 v -0.142578 c 0,-2.789894 2.284325,-5.072265 5.074219,-5.072265 z"
         style="baseline-shift:baseline;display:inline;overflow:visible;opacity:1;vector-effect:none;fill:#ffffff;stroke-width:1.16933;stroke-linecap:square;stroke-linejoin:bevel;enable-background:accumulate;stop-color:#000000;stop-opacity:1"
         id="path139" /><path
         d="m 40.435547,6.1660156 v 0.00977 l -1.054688,0.03125 c -1.87377,0.054459 -3.689353,0.3349626 -5.416015,0.8144532 -0.28735,0.079805 -0.557566,0.1963585 -0.839844,0.2871093 -0.563774,0.181253 -1.131995,0.354609 -1.673828,0.578125 -0.281987,0.1163088 -0.542782,0.2671631 -0.81836,0.3945313 -0.524376,0.2423992 -1.053251,0.4767509 -1.552734,0.7578125 -0.261007,0.1468526 -0.500154,0.3234386 -0.753906,0.4804688 -0.478548,0.296194 -0.962938,0.5849503 -1.414063,0.9160153 -0.28943,0.212363 -0.548741,0.457467 -0.826172,0.683594 -0.389795,0.31776 -0.789515,0.624908 -1.154296,0.96875 -0.252253,0.237768 -0.473228,0.504182 -0.712891,0.753906 -0.352218,0.36703 -0.715395,0.723505 -1.039063,1.115234 -0.220447,0.266793 -0.406714,0.560162 -0.613281,0.837891 -0.324311,0.436069 -0.662693,0.862534 -0.951172,1.324219 -0.421998,0.684138 -0.791481,1.402478 -1.136718,2.134765 -0.376933,0.807083 -0.711973,1.63777 -0.980469,2.5 -0.01275,0.04112 -0.03047,0.07985 -0.04297,0.121094 -0.175489,0.579048 -0.328013,1.168354 -0.451172,1.769531 l -0.210937,1.033203 -0.03906,-0.0078 c -0.03029,0.175758 -0.05814,0.3521 -0.08398,0.529297 0.638081,0.153498 1.292218,0.334079 1.955078,0.533203 0.03609,-0.274038 0.0767,-0.543721 0.123047,-0.814453 -0.0029,-0.01245 -0.003,-0.02662 -0.0059,-0.03906 0.157866,-0.912352 0.381362,-1.801449 0.664063,-2.664062 0.517319,-1.577004 1.234182,-3.064145 2.123047,-4.427735 0.3875,-0.594452 0.807926,-1.163315 1.257812,-1.708984 0.0019,0.0027 0.004,0.0049 0.0059,0.0078 3.477653,-4.219403 8.736724,-6.9140625 14.640625,-6.9140626 h 1.0039 V 6.1660156 Z"
         style="baseline-shift:baseline;display:inline;overflow:visible;opacity:1;vector-effect:none;fill:#ffffff;stroke-width:1.16933;stroke-linecap:square;stroke-linejoin:bevel;enable-background:accumulate;stop-color:#000000;stop-opacity:1"
         id="path138" /><path
         d="m 20.861328,13.492188 c 0.398885,-0.534181 0.8211,-1.050315 1.265625,-1.546875 C 18.349071,8.2826732 13.20065,6.0253907 7.53125,6.0253906 H 6.5292969 V 8.03125 H 7.53125 c 5.198876,0 9.905426,2.082609 13.330078,5.460938 z"
         style="baseline-shift:baseline;display:inline;overflow:visible;opacity:1;vector-effect:none;fill:#ffffff;stroke-width:1.16933;stroke-linecap:square;stroke-linejoin:bevel;enable-background:accumulate;stop-color:#000000;stop-opacity:1"
         id="path137" /><path
         d="m 18.544922,17.359375 c 0.141487,-0.302924 0.290653,-0.601339 0.445312,-0.896484 C 16.14207,13.369711 12.058676,11.427734 7.53125,11.427734 H 6.5292969 v 2.00586 H 7.53125 c 4.259602,0 8.054737,1.951134 10.541016,5.011718 0.147847,-0.367284 0.305456,-0.729249 0.472656,-1.085937 z"
         style="baseline-shift:baseline;display:inline;overflow:visible;opacity:1;vector-effect:none;fill:#ffffff;stroke-width:1.16933;stroke-linecap:square;stroke-linejoin:bevel;enable-background:accumulate;stop-color:#000000;stop-opacity:1"
         id="path136" /><path
         d="m 6.5292969,21.929687 v 2.00586 H 7.53125 c 0.7586967,0 1.4494726,0.269537 1.9824219,0.71875 0.6962741,-0.231285 1.4061961,-0.438562 2.1406251,-0.59961 -0.922801,-1.285034 -2.4296997,-2.125 -4.123047,-2.125 z"
         style="baseline-shift:baseline;display:inline;overflow:visible;opacity:1;vector-effect:none;fill:#ffffff;stroke-width:1.16933;stroke-linecap:square;stroke-linejoin:bevel;enable-background:accumulate;stop-color:#000000;stop-opacity:1"
         id="path135" /><path
         d="m 6.5292969,17.111328 v 2.005859 H 7.53125 c 3.186626,0 5.922164,1.872307 7.167969,4.582032 0.705295,-0.0069 1.44092,0.04014 2.210937,0.152343 -1.319919,-3.912901 -5.028632,-6.740234 -9.378906,-6.740234 z"
         style="baseline-shift:baseline;display:inline;overflow:visible;opacity:1;vector-effect:none;fill:#ffffff;stroke-width:1.16933;stroke-linecap:square;stroke-linejoin:bevel;enable-background:accumulate;stop-color:#000000;stop-opacity:1"
         id="path134" /></g></g></svg>
